<svg xmlns="http://www.w3.org/2000/svg" xmlns:xlink="http://www.w3.org/1999/xlink" version="1.0" x="0" y="0" width="2400" height="1911.6312363568472" viewBox="139.4 100.62669982910157 61.2 48.74659652709961" preserveAspectRatio="xMidYMid meet" color-interpolation-filters="sRGB"><g><defs><linearGradient id="92" x1="0%" y1="0%" x2="100%" y2="0%"><stop offset="0%" stop-color="#fa71cd"></stop> <stop offset="100%" stop-color="#9b59b6"></stop></linearGradient><linearGradient id="93" x1="0%" y1="0%" x2="100%" y2="0%"><stop offset="0%" stop-color="#f9d423"></stop> <stop offset="100%" stop-color="#f83600"></stop></linearGradient><linearGradient id="94" x1="0%" y1="0%" x2="100%" y2="0%"><stop offset="0%" stop-color="#0064d2"></stop> <stop offset="100%" stop-color="#1cb0f6"></stop></linearGradient><linearGradient id="95" x1="0%" y1="0%" x2="100%" y2="0%"><stop offset="0%" stop-color="#f00978"></stop> <stop offset="100%" stop-color="#3f51b1"></stop></linearGradient><linearGradient id="96" x1="0%" y1="0%" x2="100%" y2="0%"><stop offset="0%" stop-color="#7873f5"></stop> <stop offset="100%" stop-color="#ec77ab"></stop></linearGradient><linearGradient id="97" x1="0%" y1="0%" x2="100%" y2="0%"><stop offset="0%" stop-color="#f9d423"></stop> <stop offset="100%" stop-color="#e14fad"></stop></linearGradient><linearGradient id="98" x1="0%" y1="0%" x2="100%" y2="0%"><stop offset="0%" stop-color="#009efd"></stop> <stop offset="100%" stop-color="#2af598"></stop></linearGradient><linearGradient id="99" x1="0%" y1="0%" x2="100%" y2="0%"><stop offset="0%" stop-color="#ffcc00"></stop> <stop offset="100%" stop-color="#00b140"></stop></linearGradient><linearGradient id="100" x1="0%" y1="0%" x2="100%" y2="0%"><stop offset="0%" stop-color="#d51007"></stop> <stop offset="100%" stop-color="#ff8177"></stop></linearGradient><linearGradient id="102" x1="0%" y1="0%" x2="100%" y2="0%"><stop offset="0%" stop-color="#a2b6df"></stop> <stop offset="100%" stop-color="#0c3483"></stop></linearGradient><linearGradient id="103" x1="0%" y1="0%" x2="100%" y2="0%"><stop offset="0%" stop-color="#7ac5d8"></stop> <stop offset="100%" stop-color="#eea2a2"></stop></linearGradient><linearGradient id="104" x1="0%" y1="0%" x2="100%" y2="0%"><stop offset="0%" stop-color="#00ecbc"></stop> <stop offset="100%" stop-color="#007adf"></stop></linearGradient><linearGradient id="105" x1="0%" y1="0%" x2="100%" y2="0%"><stop offset="0%" stop-color="#b88746"></stop> <stop offset="100%" stop-color="#fdf5a6"></stop></linearGradient></defs><g class="imagesvg isNoFont" transform="translate(140,101.2267017364502)"><g><rect fill="#f757af" fill-opacity="0" stroke-width="2" x="0" y="0" width="60" height="47.54659566375048" class="image-rect"></rect> <svg x="0" y="0" width="60" height="47.54659566375048" filtersec="colorsb5721907998" class="image-svg-svg primary" style="overflow: visible;"><svg xmlns="http://www.w3.org/2000/svg" xmlns:xlink="http://www.w3.org/1999/xlink" viewBox="-0.0012044906616210938 0.003222450613975525 121.26509094238281 96.09540557861328"><defs><linearGradient id="adca2bc7-a40a-4d76-9be4-4baf577f11d5" x1="28.89" y1="87.9" x2="94.97" y2="21.81" gradientTransform="matrix(1, 0, 0, -1, 0, 98.09)" gradientUnits="userSpaceOnUse"><stop offset="0" stop-color="#ffb2c2"></stop><stop offset="1" stop-color="#f85e8a"></stop></linearGradient></defs><g id="fc947cc4-dc85-4537-936e-175f5631d461"><g id="b6b74dc6-5923-4a64-b5d2-7b1019c65e29"><path d="M39.5,68.05c-.76-11-2-35.16,0-41.08s31-25.44,47.34-9.47c12.08,11.8,4.38,25.41-5,31.91-4.94,3.42-3.65,6-1.71,9,3.29,5,9.86,11,14.64,11,5.36,0,13.73-1.36,16.1-23.34S100.54,1.28,68.41.05s-60.7,22-59.68,45.7S39.91,90.28,62.4,92.65s24.15-6.23,15.14-14.52C63.68,65.36,59.18,56,60.17,51.58c.89-4,13.31-8.88,9.93-16.49-3.45-7.78-15.36-4.26-14.1,7.38,1.43,13.69,5.73,31.77-3.1,32.7C42.76,76.23,39.86,73.32,39.5,68.05Z" fill="url(#adca2bc7-a40a-4d76-9be4-4baf577f11d5)"></path><g opacity="0.5"><path d="M103.78,12.61A50.07,50.07,0,0,0,93.64,7.28c13.53,8.68,18.81,23.94,17.21,38.8-1,9.24-3,14.83-5.49,18.21a23.29,23.29,0,0,0,2.17,1.37C122.35,73.94,130.47,30.55,103.78,12.61Z" fill="#ff8d27"></path><path d="M39.81,26.28c3.74-6.58,31.27-24.21,47-8.8a22.61,22.61,0,0,1,3.92,5c.32.56.61,1.13.86,1.69,9.12,18.72,2.33,31.94,13.74,40.12,2.44-3.38,4.5-9,5.49-18.21,1.63-14.86-3.65-30.12-17.18-38.8C66.72-3,44.1,17.87,39.81,26.28Z" fill="#ff8d27"></path></g><path d="M80.29,81a23,23,0,0,0-2.75-3C63.68,65.36,59.18,56,60.17,51.58c.89-4,13.31-8.88,9.93-16.49-3.45-7.78-15.36-4.26-14.1,7.38,1.43,13.69,5.73,31.77-3.1,32.7-10.1,1.06-13-1.85-13.36-7.11-.76-11-2-35.16,0-41.08C41,22.68,56.66,11.21,71.4,11.37c-32-.95-52.62,30.32-55.11,54.18-.83,7.87.32,14.94,3.69,19.78,8.69,12.49,34.39,12.72,49.57,7.72a68.38,68.38,0,0,1-7.15-.4,65.75,65.75,0,0,0,7.15.39C78.08,90.26,83.29,85.85,80.29,81Z" fill="#ff0098" opacity="0.6"></path><g opacity="0.5" style="isolation:isolate"><path d="M11.71,20.57a24.52,24.52,0,0,0-.58,12C15.34,22.22,24.74,12.9,36.82,6.92,24.48,8.53,14.24,13.05,11.71,20.57Z" fill="#6d59d1"></path><path d="M79.34,12.75C68.06,7.05,51,5.05,36.82,6.92c-12.08,6-21.48,15.3-25.69,25.67,3.21,18.65,22.31,40.63,33.35,42.28h.28c-3.7-1-5-3.41-5.26-6.84-.76-11-2-35.16,0-41.08C41.24,21.89,62.91,6.75,79.34,12.75Z" fill="#6d59d1"></path></g><path d="M90.8,82.64c-1.69,1.79,8.16,14.55,12,10.57S92.49,80.85,90.8,82.64ZM13.91,67.93c2,1.46-1.36,9.45-5.79,6.21S11.92,66.46,13.91,67.93Z" fill="#f757af"></path><path d="M95.41,79.18c-2.26,1.6,4.66,4.88,5.92,2.3S96.86,78.16,95.41,79.18Zm.51-73.33c3.22-2.11-.5-5.75-2.26-2.34C92.65,5.45,94.15,7.05,95.92,5.85Z" fill="#ab8eeb"></path><path d="M11.81,65.88c-2,1.81-6.81,3.62-10.06,2-2.74-1.32-3.43-9.55,6.78-6.1C14.38,63.81,12.75,65.05,11.81,65.88Z" fill="#ffbd88"></path></g></g></svg></svg> </g></g><defs v-gra="od"></defs></g></svg>